<?xml version="1.0" standalone="no"?>
<!DOCTYPE svg PUBLIC "-//W3C//DTD SVG 20010904//EN"
 "http://www.w3.org/TR/2001/REC-SVG-20010904/DTD/svg10.dtd">
<svg version="1.0" xmlns="http://www.w3.org/2000/svg"
 width="700.000000pt" height="700.000000pt" viewBox="0 0 700.000000 700.000000"
 preserveAspectRatio="xMidYMid meet">
<metadata>
Created by potrace 1.14, written by Peter Selinger 2001-2017
</metadata>
<g transform="translate(0.000000,700.000000) scale(0.100000,-0.100000)"
fill="#000000" stroke="none">
<path d="M0 3500 l0 -3500 3500 0 3500 0 0 3500 0 3500 -3500 0 -3500 0 0
-3500z m4740 1567 c208 -45 352 -116 486 -240 229 -212 279 -578 117 -857 -74
-126 -219 -251 -368 -316 -36 -16 -65 -32 -65 -35 0 -4 30 -17 68 -30 262 -86
463 -278 540 -516 67 -203 43 -460 -59 -652 -150 -280 -399 -431 -823 -498
-129 -20 -602 -24 -1003 -9 l-232 9 -569 911 c-692 1108 -769 1237 -937 1576
-42 85 -81 157 -87 159 -7 2 -8 -20 -4 -70 15 -167 26 -857 26 -1692 l0 -887
-192 2 -193 3 -3 1578 -2 1577 227 0 228 0 530 -841 c676 -1073 815 -1309 977
-1654 53 -112 86 -158 74 -103 -9 40 -26 322 -36 588 -5 140 -10 650 -10 1133
l0 877 228 1 c125 1 259 5 297 9 39 4 205 7 370 5 275 -3 309 -5 415 -28z"/>
<path d="M4095 4779 c-44 -5 -90 -11 -102 -14 l-23 -5 0 -510 0 -510 214 0
c309 0 413 17 559 93 180 92 277 249 277 447 0 289 -182 460 -530 500 -99 11
-280 11 -395 -1z"/>
<path d="M3978 3434 c-5 -4 -8 -276 -8 -604 l0 -597 58 -7 c115 -13 433 -8
526 9 308 54 490 197 551 430 22 82 22 247 0 322 -51 178 -181 310 -373 380
-139 51 -229 64 -497 70 -137 3 -253 2 -257 -3z"/>
</g>
</svg>
