<?xml version="1.0" standalone="no"?>
<!DOCTYPE svg PUBLIC "-//W3C//DTD SVG 20010904//EN"
 "http://www.w3.org/TR/2001/REC-SVG-20010904/DTD/svg10.dtd">
<svg version="1.0" xmlns="http://www.w3.org/2000/svg"
 width="700.000000pt" height="700.000000pt" viewBox="0 0 700.000000 700.000000"
 preserveAspectRatio="xMidYMid meet">
<metadata>
Created by potrace 1.14, written by Peter Selinger 2001-2017
</metadata>
<g transform="translate(0.000000,700.000000) scale(0.100000,-0.100000)"
fill="#000000" stroke="none">
<path d="M4195 5479 c-55 -4 -255 -11 -444 -15 l-344 -6 6 -1207 c5 -1176 11
-1410 43 -1830 13 -180 13 -225 0 -210 -2 2 -50 101 -108 219 -211 434 -345
660 -1195 2008 l-645 1022 -279 0 -279 0 0 -1960 0 -1960 238 2 237 3 -2 1270
c-2 1138 -10 1695 -29 1943 -4 46 -3 82 2 82 5 0 53 -89 106 -198 208 -423
341 -647 1236 -2077 l638 -1020 229 -7 c127 -3 300 -11 385 -17 496 -34 959 4
1275 105 395 126 664 405 755 784 19 77 23 123 23 245 0 160 -12 236 -56 357
-97 268 -349 499 -652 597 -44 14 -81 30 -83 34 -2 5 50 35 115 67 309 153
502 414 531 716 29 304 -81 583 -298 758 -204 164 -384 238 -690 281 -133 19
-558 28 -715 14z m545 -389 c263 -32 460 -134 560 -290 74 -116 107 -314 76
-460 -52 -249 -245 -433 -527 -504 -119 -29 -203 -36 -481 -36 l-278 0 0 635
c0 349 3 635 8 636 4 0 54 6 112 14 129 16 416 19 530 5z m0 -1685 c267 -36
459 -122 596 -266 71 -75 107 -134 140 -227 69 -200 41 -476 -65 -639 -38 -59
-125 -149 -177 -185 -62 -41 -187 -99 -266 -122 -168 -49 -277 -59 -573 -54
-148 3 -278 9 -287 13 -17 7 -18 52 -18 751 l0 744 273 0 c179 0 308 -5 377
-15z"/>
</g>
</svg>
